This is a film about the threat of terrorism, and how in tackling it, governments tend to go too far. So far in fact that personal liberties which are guaranteed by the constitutions of democratic countries are no longer respected. Lumet uses US and China, two countries with completely different views on the concept of liberty, to show that despite one being democratic and the other totalitarian, governments will not hesitate in stripping citizens of their basic rights, if such rights impede the greater good (which, of course, is defined by the government).

   General
      Complete name : Strip.Search.2004.DVDRip.XviD.avi
      Format : AVI
      Format/Info : Audio Video Interleave
      File size : 704 MiB
      Duration : 55mn 52s
      Overall bit rate : 1 761 Kbps
      Writing application : VirtualDubMod 1.5.10.2 (build 2540/release)
      Writing library : VirtualDubMod build 2540/release
   Video #0
      ID : 0
      Format : MPEG-4 Visual
      Format profile : AdvancedSimple@L5
      Format settings, BVOP : Yes
      Format settings, QPel : No
      Format settings, GMC : No warppoints
      Format settings, Matrix : Default (MPEG)
      Codec ID : XVID
      Codec ID/Hint : XviD
      Duration : 55mn 52s
      Bit rate : 1 560 Kbps
      Width : 704 pixels
      Height : 400 pixels
      Display aspect ratio : 16:9
      Frame rate : 23.976 fps
      Resolution : 24 bits
      Colorimetry : 4:2:0
      Scan type : Progressive
      Bits/(Pixel*Frame) : 0.231
      Stream size : 623 MiB (89%)
      Writing library : XviD 1.2.1 (UTC 2008-12-04)
   Audio #1
      ID : 1
      Format : AC-3
      Format/Info : Audio Coding 3
      Format profile : Dolby Digital
      Codec ID : 2000
      Duration : 55mn 52s
      Bit rate mode : Constant
      Bit rate : 192 Kbps
      Channel(s) : 2 channels
      Channel positions : L R
      Sampling rate : 48.0 KHz
      Video delay : 29ms
      Stream size : 76.7 MiB (11%)
      Alignment : Split accross interleaves
      Interleave, duration : 42 ms (1.00 video frame)
      Interleave, preload duration : 500 ms
 
http://www.imdb.com/title/tt0376215/

English audio; English, Spanish and Portuguese subtitles

Posted at KG by 54

Sidney Lumet - Strip Search (2004)